<?xml version="1.0" encoding="UTF-8" standalone="no"?>
<!-- Created with Inkscape (http://www.inkscape.org/) -->

<svg
   width="1987.5521"
   height="444.26099"
   viewBox="0 0 525.87317 117.54405"
   version="1.1"
   id="svg1"
   xmlns="http://www.w3.org/2000/svg"
   xmlns:svg="http://www.w3.org/2000/svg">
  <defs
     id="defs1" />
  <g
     id="layer1"
     transform="translate(-1.6620397,-1.0583334)">
    <g
       id="layer2"
       transform="translate(1.6620397,1.0583334)">
      <rect
         style="fill:#ffffff;fill-opacity:1;stroke:none;stroke-width:0;stroke-linecap:butt;stroke-dasharray:none;stroke-opacity:1;paint-order:markers fill stroke"
         id="rect9"
         width="525.87311"
         height="117.54405"
         x="0"
         y="0" />
    </g>
    <path
       style="fill:#084594;fill-opacity:1;stroke-width:0.264583;paint-order:markers fill stroke"
       d="m 99.701665,9.767079 v 64.822917 h 66.145965 l 13.22916,-13.22917 h 26.45833 V 9.767079 Z"
       id="path66" />
    <path
       id="path9"
       style="fill:#084594;stroke:#084594;stroke-width:0.265035;stroke-opacity:1;paint-order:markers fill stroke"
       d="M 180.14611,63.500001 166.91746,76.729168 H 21.39611 v 22.299931 a 88.164475,89.204338 0 0 1 46.725831,5.251361 88.164996,89.204866 0 0 0 65.486959,0 88.164453,89.204316 0 0 1 65.48748,0 88.165006,89.204876 0 0 0 65.48696,0 88.164465,89.204328 0 0 1 13.24157,-4.17029 c 5.19584,-6.431036 8.15446,-13.7412 8.15454,-22.027597 V 76.729168 63.500001 Z" />
    <rect
       style="fill:#084594;fill-opacity:1;stroke-width:0.261923;paint-order:markers fill stroke"
       id="rect69"
       width="132.29164"
       height="6.4822917"
       x="86.218964"
       y="1.0583334"
       ry="3.2411458" />
    <text
       xml:space="preserve"
       style="font-style:normal;font-variant:normal;font-weight:normal;font-stretch:normal;font-size:67.0278px;line-height:0;font-family:'Didact Gothic';-inkscape-font-specification:'Didact Gothic, Normal';font-variant-ligatures:normal;font-variant-caps:normal;font-variant-numeric:normal;font-variant-east-asian:normal;text-align:start;letter-spacing:5.29167px;writing-mode:lr-tb;direction:ltr;text-anchor:start;fill:#084594;fill-opacity:1;stroke-width:0.264583;paint-order:markers fill stroke"
       x="62.435596"
       y="58.380089"
       id="text114"><tspan
         id="tspan114"
         style="font-size:67.0278px;line-height:0;letter-spacing:5.29167px;stroke-width:0.264583"
         x="62.435596"
         y="58.380089">B<tspan
   style="font-size:67.0278px;letter-spacing:5.29167px;fill:#ffffff;fill-opacity:1"
   id="tspan115">oo</tspan><tspan
   style="letter-spacing:0px"
   id="tspan116">tsverleih</tspan></tspan></text>
    <path
       id="rect116"
       style="fill:#084594;fill-opacity:1;stroke-width:0.142109;paint-order:markers fill stroke"
       d="m 60.798695,41.988136 -5.87523,1.57393 6.29693,23.49856 h 6.08193 v 12.16387 h 6.08196 v -12.16387 h 2.57058 l 2.80579,4.86022 5.26706,-3.04098 -4.56147,-7.90115 h -13.57928 z" />
    <path
       style="fill:#000000;fill-opacity:0;stroke:#084594;stroke-width:5.29167;paint-order:markers fill stroke"
       d="m 374.92867,171.75786 v -0.61501 a 119.55346,119.55346 73.747986 0 0 -18.72761,-64.24311"
       id="path1"
       transform="translate(-332.46804,-82.400483)" />
    <path
       style="fill:#000000;fill-opacity:0;stroke:#084594;stroke-width:5.29167;stroke-linecap:butt;stroke-dasharray:none;paint-order:markers fill stroke"
       d="m 0,188.34528 a 89.051304,89.051304 0 0 1 66.145834,0 89.051831,89.051831 6.9304686e-8 0 0 66.145836,0 l 0,0 1e-5,0 a 89.051281,89.051281 2.9869174e-6 0 1 66.14582,0 l 0,0 0,0 a 89.051841,89.051841 180 0 0 66.14584,0 l 0,0 a 89.051294,89.051294 0 0 1 66.14583,0 l 10e-6,0 a 89.051804,89.051804 180 0 0 66.14582,0 89.051319,89.051319 0 0 1 66.14584,0 l 10e-6,0 a 89.051804,89.051804 180 0 0 66.14582,0"
       id="path8"
       transform="matrix(0.99009899,0,0,1.0017085,2.6349517,-79.095029)" />
  </g>
</svg>
