<?xml version="1.0" encoding="UTF-8" standalone="no"?>
<!-- Created with Inkscape (http://www.inkscape.org/) -->

<svg
   width="1920"
   height="911"
   viewBox="0 0 507.99999 241.03541"
   version="1.1"
   id="svg1"
   xmlns="http://www.w3.org/2000/svg"
   xmlns:svg="http://www.w3.org/2000/svg">
  <defs
     id="defs1" />
  <g
     id="layer1">
    <path
       id="path10"
       style="fill:#9ecae1;stroke-width:0.264583;paint-order:markers fill stroke"
       d="M 0,0 V 66.829 A 56.924075,56.924075 0 0 0 37.040635,48.20688 v -0.003 -0.003 a 56.924075,56.924075 0 0 1 5.291666,-5.16765 56.924075,56.924075 0 0 1 37.041666,-13.70097 56.924075,56.924075 0 0 1 42.333323,18.86862 v 0.003 0.003 a 56.924075,56.924075 0 0 0 42.33333,18.86861 56.924075,56.924075 0 0 0 42.33333,-18.86861 v -0.003 -0.003 a 56.924075,56.924075 0 0 1 42.33334,-18.86862 56.924075,56.924075 0 0 1 42.33333,18.86862 v 0.003 0.003 a 56.924075,56.924075 0 0 0 42.33333,18.86861 56.924075,56.924075 0 0 0 42.33333,-18.86861 v -0.003 -0.003 a 56.924075,56.924075 0 0 1 42.33334,-18.86862 56.924075,56.924075 0 0 1 42.33333,18.86862 v 0.003 0.003 a 56.924075,56.924075 0 0 0 42.33333,18.86861 56.924075,56.924075 0 0 0 5.2927,-0.2465 V 48.20378 0 H 375.70728 206.37395 42.332301 37.040635 Z" />
    <g
       id="g95"
       transform="matrix(0.99999797,0,0,1,0.00102921,0)">
      <path
         id="path24"
         style="fill:#6baed6;stroke-width:0.264583;paint-order:markers fill stroke"
         d="m 107.82184,10.58385 c -0.41182,0.01084 -0.77096,0.308526 -0.84543,0.730705 l -3.06803,17.398937 -13.62242,-2.402437 a 14.740083,7.9189041 10 0 0 0.509529,3.027205 56.923996,56.923996 0 0 0 -0.838191,-0.0062 56.923996,56.923996 0 0 0 -42.333333,18.868615 v 0.0031 0.0031 A 56.923996,56.923996 0 0 1 42.332299,53.374519 56.923996,56.923996 0 0 1 5.290633,67.075491 56.923996,56.923996 0 0 1 0,66.828994 v 48.203776 a 56.923996,56.923996 0 0 0 5.290633,0.2465 56.923996,56.923996 0 0 0 31.749999,-9.67745 v -9.19427 -0.0031 a 56.923998,56.923998 0 0 1 5.291667,-5.167643 56.923998,56.923998 0 0 1 5.291666,-4.023527 v 9.19117 A 56.923996,56.923996 0 0 1 89.957298,77.535834 56.923996,56.923996 0 0 1 132.29063,96.404449 v 0.0031 0.0031 a 56.923996,56.923996 0 0 0 42.33333,18.868621 56.923996,56.923996 0 0 0 42.33333,-18.868621 v -0.0031 -0.0031 a 56.923996,56.923996 0 0 1 42.33334,-18.868615 56.923996,56.923996 0 0 1 42.33333,18.868615 v 0.0031 0.0031 a 56.923996,56.923996 0 0 0 42.33333,18.868621 56.923996,56.923996 0 0 0 42.33333,-18.868621 v -0.0031 -0.0031 a 56.923996,56.923996 0 0 1 42.33334,-18.868615 56.923996,56.923996 0 0 1 42.33333,18.868615 v 0.0031 0.0031 a 56.923996,56.923996 0 0 0 37.0427,18.622121 V 96.40755 66.828994 a 56.923996,56.923996 0 0 1 -37.0427,-18.622119 v -0.0031 -0.0026 a 56.923996,56.923996 0 0 0 -13.21263,-10.856185 3.7500566,3.7500566 0 0 0 2.13062,-2.757971 l 0.2036,-1.154451 -30.35938,-5.353162 a 9.7335741,9.7335741 0 0 0 0.5612,1.276925 56.923996,56.923996 0 0 0 -1.65674,-0.02429 56.923996,56.923996 0 0 0 -42.33334,18.868615 v 0.0031 0.0031 A 56.923996,56.923996 0 0 1 343.95729,67.075491 56.923996,56.923996 0 0 1 301.62396,48.206875 v -0.0031 -0.0026 a 56.923996,56.923996 0 0 0 -17.75241,-13.288077 3.2777638,3.2777638 0 0 0 0.64803,-1.452625 l 0.13539,-0.767395 -24.68118,-4.351672 a 8.8194287,8.8194287 0 0 0 0.49609,1.003039 56.923996,56.923996 0 0 0 -1.17925,-0.0124 56.923996,56.923996 0 0 0 -42.33334,18.868615 v 0.0031 0.0031 A 56.923996,56.923996 0 0 1 174.62396,67.075491 56.923996,56.923996 0 0 1 132.29063,48.206875 v -0.0031 -0.0026 a 56.923996,56.923996 0 0 0 -16.55868,-12.699483 14.694624,7.8944819 10 0 0 3.54139,-4.079337 L 105.6504,29.02045 108.71843,11.621513 c 0.0851,-0.48246 -0.23482,-0.939127 -0.71727,-1.024227 -0.0603,-0.01063 -0.12049,-0.01499 -0.17932,-0.01344 z m -1.15807,0.624768 -14.39912,13.943851 11.61169,2.04742 z m 2.35335,0.414962 -0.59118,3.351733 3.19877,-1.16427 z m -0.93948,5.464265 -1.87896,10.521322 8.70852,1.535823 z m 161.25837,0.903821 -1.39165,1.545642 11.50834,2.029334 -0.61288,3.474206 -13.67927,-2.412256 -1.39216,1.545642 -4.34289,-0.765844 a 8.8194287,8.8194287 0 0 0 0.26924,4.167187 l 25.0827,4.422986 v -0.001 a 4.4867381,4.4867381 0 0 0 5.12165,-3.651973 l 0.21601,-1.222664 a 1.3270635,1.3270635 0 0 0 -1.07332,-1.536857 c 0.002,-0.008 0.004,-0.01829 0.005,-0.02739 l 0.0207,-0.118856 c 0.0791,-0.4482 -0.2179,-0.87285 -0.66611,-0.95188 l -0.98754,-0.174149 c -0.4482,-0.079 -0.87283,0.218426 -0.95188,0.666626 l -0.0212,0.118856 c -0.002,0.01 -0.003,0.01819 -0.004,0.02739 a 1.3270635,1.3270635 0 0 0 -1.53376,1.076937 l -0.29042,1.646411 -4.34289,-0.765845 1.22525,-6.948413 z m -1.80919,2.00918 -1.94872,2.164209 12.83281,2.262394 0.42839,-2.431893 z m 173.78525,0.374137 a 3.2100198,3.4240212 10 0 0 -3.33778,2.858224 l -0.0744,0.421679 -8.42998,-1.486731 -0.16795,0.95188 a 9.7335741,9.7335741 0 0 0 0.14056,4.041614 l 30.7852,5.428092 0.48318,-2.739884 -2.10737,-0.371554 0.44597,-2.529044 a 3.2100198,3.4240212 10 0 0 -2.56677,-3.929476 l -14.75259,-2.600875 a 3.2100198,3.4240212 10 0 0 -0.41806,-0.04392 z m 2.00556,2.076876 a 1.7120104,1.7120104 0 0 1 0.22273,0.02429 1.7120104,1.7120104 0 0 1 1.38854,1.983341 1.7120104,1.7120104 0 0 1 -1.98334,1.389063 1.7120104,1.7120104 0 0 1 -1.38854,-1.983342 1.7120104,1.7120104 0 0 1 1.76061,-1.41335 z m 5.26893,0.929142 a 1.7120104,1.7120104 0 0 1 0.22221,0.02429 1.7120104,1.7120104 0 0 1 1.38906,1.983342 1.7120104,1.7120104 0 0 1 -1.98334,1.388545 1.7120104,1.7120104 0 0 1 -1.38906,-1.983341 1.7120104,1.7120104 0 0 1 1.76113,-1.412834 z m 5.26841,0.929142 a 1.7120104,1.7120104 0 0 1 0.22273,0.02429 1.7120104,1.7120104 0 0 1 1.38854,1.983342 1.7120104,1.7120104 0 0 1 -1.98334,1.388546 1.7120104,1.7120104 0 0 1 -1.38854,-1.983342 1.7120104,1.7120104 0 0 1 1.76061,-1.412834 z" />
      <path
         d="m 169.3323,66.822785 a 56.923996,56.923996 0 0 0 5.29166,0.2465 56.923996,56.923996 0 0 0 42.33333,-18.86861 v -0.003 -0.003 a 56.923996,56.923996 0 0 1 37.04167,-18.62211 56.924075,56.924075 0 0 0 -5.29167,-0.2465 56.924075,56.924075 0 0 0 -42.33333,18.86861 v 0.003 0.003 a 56.924075,56.924075 0 0 1 -37.04166,18.62211 z"
         style="fill:#ffffff;stroke-width:0.264583;paint-order:markers fill stroke"
         id="path84-1" />
      <path
         d="m 338.66564,66.834985 a 56.923996,56.923996 0 0 0 5.29166,0.2465 56.923996,56.923996 0 0 0 42.33333,-18.86861 v -0.003 -0.003 a 56.923996,56.923996 0 0 1 37.04167,-18.62211 56.924075,56.924075 0 0 0 -5.29167,-0.2465 56.924075,56.924075 0 0 0 -42.33333,18.86861 v 0.003 0.003 a 56.924075,56.924075 0 0 1 -37.04166,18.62211 z"
         style="fill:#ffffff;stroke-width:0.264583;paint-order:markers fill stroke"
         id="path84-11" />
      <path
         d="m -0.001027,66.828986 a 56.923996,56.923996 0 0 0 5.29166,0.2465 56.923996,56.923996 0 0 0 42.33333,-18.86861 v -0.003 -0.003 a 56.923996,56.923996 0 0 1 37.04167,-18.62211 56.924075,56.924075 0 0 0 -5.29167,-0.2465 56.924075,56.924075 0 0 0 -42.33333,18.86861 v 0.003 0.003 a 56.924075,56.924075 0 0 1 -37.04166,18.62211 z"
         style="fill:#ffffff;stroke-width:0.264583;paint-order:markers fill stroke"
         id="path84-2" />
    </g>
    <g
       id="g94">
      <path
         id="path41"
         style="fill:#4292c6;stroke-width:0.264583;paint-order:markers fill stroke"
         d="m 399.59524,57.679682 c -0.0588,-0.0015 -0.11901,0.0028 -0.17932,0.01344 -0.48245,0.0851 -0.80236,0.541767 -0.71727,1.024227 l 3.06803,17.398937 -13.62294,2.401921 a 7.8944819,14.694624 80 0 0 5.07204,4.715991 56.923998,56.923998 0 0 0 -17.50849,13.170255 v 0.0031 0.0031 A 56.923998,56.923998 0 0 1 333.37396,115.27927 56.923998,56.923998 0 0 1 291.04063,96.410653 v -0.0031 -0.0031 a 56.923998,56.923998 0 0 0 -42.33334,-18.868615 56.923998,56.923998 0 0 0 -2.19108,0.04238 9.7335741,9.7335741 0 0 0 0.90434,-1.873788 l -30.35939,5.353162 0.20309,1.154451 a 3.7500566,3.7500566 0 0 0 2.87941,3.009119 56.923998,56.923998 0 0 0 -13.7697,11.183296 v 0.0031 0.0031 A 56.923998,56.923998 0 0 1 164.04063,115.27927 56.923998,56.923998 0 0 1 121.7073,96.41065 v -0.0031 -0.0031 a 56.923998,56.923998 0 0 0 -42.333335,-18.868615 56.923998,56.923998 0 0 0 -1.393197,0.01705 8.8194287,8.8194287 0 0 0 0.86403,-1.586466 l -24.68118,4.351672 0.135392,0.767395 a 3.2777638,3.2777638 0 0 0 0.96945,1.806608 56.923998,56.923998 0 0 0 -7.644495,4.321183 56.923998,56.923998 0 0 0 -5.291666,4.023527 56.923998,56.923998 0 0 0 -5.291667,5.167643 v 0.0031 0.0031 A 56.923998,56.923998 0 0 1 0,115.03277 v 48.20326 a 56.923998,56.923998 0 0 0 37.040632,-18.6216 v -0.003 -0.003 a 56.923998,56.923998 0 0 1 5.291667,-5.16764 56.923998,56.923998 0 0 1 37.041666,-13.70097 56.923998,56.923998 0 0 1 42.333335,18.86861 v 0.003 0.003 a 56.923998,56.923998 0 0 0 42.33333,18.86861 56.923998,56.923998 0 0 0 42.33333,-18.86861 v -0.003 -0.003 a 56.923998,56.923998 0 0 1 42.33333,-18.86861 56.923998,56.923998 0 0 1 42.33334,18.86861 v 0.003 0.003 a 56.923998,56.923998 0 0 0 42.33333,18.86861 56.923998,56.923998 0 0 0 42.33333,-18.86861 v -0.003 -0.003 a 56.923998,56.923998 0 0 1 42.33333,-18.86861 56.923998,56.923998 0 0 1 42.33334,18.86861 v 0.003 0.003 a 56.923998,56.923998 0 0 0 42.33333,18.86861 56.923998,56.923998 0 0 0 5.2927,-0.24701 v -18.62471 -5.41724 -24.16131 a 56.923998,56.923998 0 0 1 -5.2927,0.2465 56.923998,56.923998 0 0 1 -42.33333,-18.86862 v -0.0031 -0.0031 a 56.923998,56.923998 0 0 0 -42.33334,-18.868615 56.923998,56.923998 0 0 0 -2.12235,0.03979 7.9189041,14.740083 80 0 0 1.21285,-4.168738 l -13.62294,2.402437 -3.06752,-17.398937 c -0.0745,-0.422179 -0.43361,-0.719861 -0.84542,-0.730705 z m 1.15807,0.624768 2.78742,15.991272 11.6117,-2.04742 z m -2.35335,0.414962 -2.60759,2.187463 3.19825,1.16427 z m 0.93948,5.464266 -6.82956,12.057145 8.70851,-1.535824 z m -329.857378,1.432987 -12.159464,2.144055 1.225248,6.948413 -4.34237,0.765845 -0.290422,-1.645894 A 1.3270635,1.3270635 0 0 0 52.381298,72.75163 c -10e-4,-0.0092 -0.0021,-0.01779 -0.0041,-0.02739 l -0.02067,-0.118855 c -0.07905,-0.448204 -0.50368,-0.745656 -0.95188,-0.666626 l -0.987537,0.174149 c -0.44821,0.07903 -0.745726,0.503682 -0.666626,0.95188 l 0.02119,0.118856 c 10e-4,0.0091 0.0027,0.01889 0.0047,0.02739 a 1.3270635,1.3270635 0 0 0 -1.072803,1.536857 l 0.215491,1.222665 a 4.4867381,4.4867381 0 0 0 5.121651,3.651973 l 5.17e-4,0.001 25.082706,-4.422986 a 8.8194287,8.8194287 0 0 0 0.268717,-4.167187 L 75.050284,71.7992 73.658121,70.253558 59.978852,72.665814 59.36597,69.191608 70.874311,67.162274 Z m 1.809709,2.00918 -11.313005,1.99471 0.428915,2.431893 12.832808,-2.262394 z m 164.535689,0.374137 a 3.4240212,3.2100198 80 0 0 -0.41755,0.04393 l -14.75258,2.600875 a 3.4240212,3.2100198 80 0 0 -2.56677,3.929476 l 0.44597,2.529044 -2.10737,0.371554 0.48318,2.739884 30.7852,-5.428092 a 9.7335741,9.7335741 0 0 0 0.14056,-4.041614 l -0.16795,-0.95188 -8.42998,1.486731 -0.0744,-0.421679 a 3.4240212,3.2100198 80 0 0 -3.3383,-2.858224 z m -2.00505,2.076876 a 1.7120104,1.7120104 0 0 1 1.76062,1.41335 1.7120104,1.7120104 0 0 1 -1.38854,1.983342 1.7120104,1.7120104 0 0 1 -1.98335,-1.389063 1.7120104,1.7120104 0 0 1 1.38855,-1.983341 1.7120104,1.7120104 0 0 1 0.22272,-0.02429 z M 228.55349,71.006 a 1.7120104,1.7120104 0 0 1 1.76061,1.412834 1.7120104,1.7120104 0 0 1 -1.38854,1.983341 1.7120104,1.7120104 0 0 1 -1.98335,-1.388546 1.7120104,1.7120104 0 0 1 1.38907,-1.983341 1.7120104,1.7120104 0 0 1 0.22221,-0.02429 z m -5.26842,0.929142 a 1.7120104,1.7120104 0 0 1 1.76062,1.412834 1.7120104,1.7120104 0 0 1 -1.38906,1.983341 1.7120104,1.7120104 0 0 1 -1.98283,-1.388545 1.7120104,1.7120104 0 0 1 1.38855,-1.983342 1.7120104,1.7120104 0 0 1 0.22272,-0.02429 z" />
      <path
         d="m 507.99895,115.03256 a 56.923996,56.923996 0 0 1 -5.29166,0.2465 56.923996,56.923996 0 0 1 -42.33333,-18.86861 v -0.003 -0.003 a 56.923996,56.923996 0 0 0 -37.04167,-18.62211 56.924075,56.924075 0 0 1 5.29167,-0.2465 56.924075,56.924075 0 0 1 42.33333,18.86861 v 0.003 0.003 a 56.924075,56.924075 0 0 0 37.04166,18.62211 z"
         style="fill:#ffffff;stroke-width:0.264583;paint-order:markers fill stroke"
         id="path84-88" />
      <path
         d="m 338.66562,115.03876 a 56.923996,56.923996 0 0 1 -5.29166,0.2465 56.923996,56.923996 0 0 1 -42.33333,-18.868609 v -0.003 -0.003 a 56.923996,56.923996 0 0 0 -37.04167,-18.62211 56.924075,56.924075 0 0 1 5.29167,-0.2465 56.924075,56.924075 0 0 1 42.33333,18.86861 v 0.003 0.003 a 56.924075,56.924075 0 0 0 37.04166,18.622109 z"
         style="fill:#ffffff;stroke-width:0.264583;paint-order:markers fill stroke"
         id="path84-5" />
      <path
         d="m 169.33229,115.03276 a 56.923996,56.923996 0 0 1 -5.29166,0.2465 56.923996,56.923996 0 0 1 -42.33333,-18.868609 v -0.003 -0.003 a 56.923996,56.923996 0 0 0 -37.04167,-18.62211 56.924075,56.924075 0 0 1 5.29167,-0.2465 56.924075,56.924075 0 0 1 42.33333,18.86861 v 0.003 0.003 a 56.924075,56.924075 0 0 0 37.04166,18.622109 z"
         style="fill:#ffffff;stroke-width:0.264583;paint-order:markers fill stroke"
         id="path84-7" />
    </g>
    <g
       id="g93"
       transform="matrix(0.99999797,0,0,1,0.00102921,0)">
      <path
         id="path57"
         style="fill:#2171b5;stroke-width:0.264583;paint-order:markers fill stroke"
         d="m 276.626,104.77551 c -0.41181,0.0109 -0.77096,0.30853 -0.84542,0.73071 l -3.06803,17.39894 -13.62243,-2.40244 a 14.740083,7.9189041 10 0 0 2.17093,5.271 56.923998,56.923998 0 0 0 -1.97042,-0.0341 56.923998,56.923998 0 0 0 -42.33334,18.86861 v 0.003 0.003 5.1e-4 a 56.923998,56.923998 0 0 1 -42.33333,18.86862 56.923998,56.923998 0 0 1 -42.33333,-18.86862 v -0.004 -0.003 a 56.923998,56.923998 0 0 0 -15.61403,-12.20753 3.7500566,3.7500566 0 0 0 3.47369,-3.09231 l 0.2036,-1.15446 -30.359385,-5.35316 a 9.7335741,9.7335741 0 0 0 1.693436,2.96571 56.923998,56.923998 0 0 0 -1.730643,-0.0264 56.923998,56.923998 0 0 0 -42.333333,18.86861 v 0.003 0.003 a 56.923998,56.923998 0 0 1 -5.291666,5.16764 v -10e-4 A 56.923998,56.923998 0 0 1 5.290633,163.48201 56.923998,56.923998 0 0 1 0,163.23551 v 48.20378 a 56.923998,56.923998 0 0 0 5.290633,0.24649 56.923998,56.923998 0 0 0 31.749999,-9.67693 v -5.1e-4 -9.19427 -0.003 a 56.924075,56.924075 0 0 1 5.291667,-5.16816 v 5.1e-4 a 56.924075,56.924075 0 0 1 5.291666,-4.02352 v 9.1922 A 56.923998,56.923998 0 0 1 89.957298,173.94338 56.923998,56.923998 0 0 1 132.29063,192.812 v 0.003 0.003 a 56.923998,56.923998 0 0 0 42.33333,18.8681 56.923998,56.923998 0 0 0 42.33333,-18.86862 v -0.003 -0.003 a 56.923998,56.923998 0 0 1 42.33334,-18.86861 56.923998,56.923998 0 0 1 42.33333,18.86861 v 0.003 0.003 a 56.923998,56.923998 0 0 0 42.33333,18.86862 56.923998,56.923998 0 0 0 42.33333,-18.86862 v -0.003 -0.003 a 56.923998,56.923998 0 0 1 42.33334,-18.86861 56.923998,56.923998 0 0 1 42.33333,18.86861 v 0.003 0.003 a 56.923998,56.923998 0 0 0 37.0427,18.62212 v -18.6247 -29.57856 a 56.923998,56.923998 0 0 1 -37.0427,-18.62211 v -0.003 -0.003 a 56.923998,56.923998 0 0 0 -18.59938,-13.68443 3.2777638,3.2777638 0 0 0 1.495,-2.2133 l 0.13539,-0.7674 -24.68118,-4.35167 a 8.8194287,8.8194287 0 0 0 1.31103,2.18333 56.923998,56.923998 0 0 0 -1.99419,-0.0351 56.923998,56.923998 0 0 0 -42.33334,18.86861 v 0.003 0.003 a 56.923998,56.923998 0 0 1 -42.33333,18.86861 56.923998,56.923998 0 0 1 -42.33333,-18.86861 v -0.003 -0.003 a 56.923998,56.923998 0 0 0 -19.38848,-14.03945 14.694624,7.8944819 10 0 0 5.84202,-4.95473 l -13.62294,-2.40193 3.06803,-17.39893 c 0.0851,-0.48246 -0.23482,-0.93913 -0.71727,-1.02423 -0.0603,-0.0106 -0.12049,-0.015 -0.17932,-0.0134 z m -1.15807,0.62477 -14.39912,13.94385 11.6117,2.04742 z m 2.35335,0.41496 -0.59118,3.35174 3.19877,-1.16427 z m -0.93948,5.46427 -1.87895,10.52132 8.70851,1.53582 z m 161.78754,1.96215 -1.39165,1.54565 11.50834,2.02933 -0.61288,3.47421 -13.67927,-2.41226 -1.39216,1.54564 -4.34289,-0.76584 a 8.8194287,8.8194287 0 0 0 0.26924,4.16718 l 25.0827,4.42299 v -0.001 a 4.4867381,4.4867381 0 0 0 5.12165,-3.65198 l 0.21601,-1.22266 a 1.3270635,1.3270635 0 0 0 -1.07332,-1.53686 c 0.002,-0.008 0.004,-0.0183 0.005,-0.0274 l 0.0207,-0.11885 c 0.0791,-0.4482 -0.2179,-0.87285 -0.66611,-0.95188 l -0.98754,-0.17415 c -0.4482,-0.079 -0.87283,0.21842 -0.95188,0.66662 l -0.0212,0.11886 c -0.002,0.01 -0.003,0.0182 -0.004,0.0274 a 1.3270635,1.3270635 0 0 0 -1.53376,1.07694 l -0.29042,1.64641 -4.34289,-0.76585 1.22525,-6.94841 z m -337.08226,1.85415 a 3.2100198,3.4240212 10 0 0 -3.337782,2.85823 l -0.07441,0.42168 -8.429976,-1.48673 -0.167949,0.95188 a 9.7335741,9.7335741 0 0 0 0.14056,4.04161 l 30.785197,5.42809 0.48317,-2.73988 -2.10736,-0.37156 0.44597,-2.52904 a 3.2100198,3.4240212 10 0 0 -2.56677,-3.92948 l -14.75259,-2.60087 a 3.2100198,3.4240212 10 0 0 -0.41806,-0.0439 z m 335.27307,0.15503 -1.94872,2.16421 12.83281,2.2624 0.42839,-2.4319 z m -333.26751,1.92185 a 1.7120104,1.7120104 0 0 1 0.22273,0.0243 1.7120104,1.7120104 0 0 1 1.38854,1.98334 1.7120104,1.7120104 0 0 1 -1.98334,1.38906 1.7120104,1.7120104 0 0 1 -1.38855,-1.98334 1.7120104,1.7120104 0 0 1 1.76062,-1.41335 z m 5.26893,0.92914 a 1.7120104,1.7120104 0 0 1 0.22221,0.0243 1.7120104,1.7120104 0 0 1 1.38906,1.98334 1.7120104,1.7120104 0 0 1 -1.98334,1.38855 1.7120104,1.7120104 0 0 1 -1.38906,-1.98334 1.7120104,1.7120104 0 0 1 1.76113,-1.41284 z m 5.26841,0.92914 a 1.7120104,1.7120104 0 0 1 0.22273,0.0243 1.7120104,1.7120104 0 0 1 1.38854,1.98334 1.7120104,1.7120104 0 0 1 -1.98282,1.38855 1.7120104,1.7120104 0 0 1 -1.38906,-1.98334 1.7120104,1.7120104 0 0 1 1.76061,-1.41284 z" />
      <path
         d="m -0.001027,163.23654 a 56.923996,56.923996 0 0 0 5.29166,0.2465 56.923996,56.923996 0 0 0 42.33333,-18.86861 v -0.003 -0.003 a 56.923996,56.923996 0 0 1 37.04167,-18.62211 56.924075,56.924075 0 0 0 -5.29167,-0.2465 56.924075,56.924075 0 0 0 -42.33333,18.86861 v 0.003 0.003 a 56.924075,56.924075 0 0 1 -37.04166,18.62211 z"
         style="fill:#ffffff;stroke-width:0.264583;paint-order:markers fill stroke"
         id="path84-19" />
      <path
         d="m 169.3323,163.24254 a 56.923996,56.923996 0 0 0 5.29166,0.2465 56.923996,56.923996 0 0 0 42.33333,-18.86861 v -0.003 -0.003 a 56.923996,56.923996 0 0 1 37.04167,-18.62211 56.924075,56.924075 0 0 0 -5.29167,-0.2465 56.924075,56.924075 0 0 0 -42.33333,18.86861 v 0.003 0.003 a 56.924075,56.924075 0 0 1 -37.04166,18.62211 z"
         style="fill:#ffffff;stroke-width:0.264583;paint-order:markers fill stroke"
         id="path84-28" />
      <path
         d="m 338.66564,163.23634 a 56.923996,56.923996 0 0 0 5.29166,0.2465 56.923996,56.923996 0 0 0 42.33333,-18.86861 v -0.003 -0.003 a 56.923996,56.923996 0 0 1 37.04167,-18.62211 56.924075,56.924075 0 0 0 -5.29167,-0.2465 56.924075,56.924075 0 0 0 -42.33333,18.86861 v 0.003 0.003 a 56.924075,56.924075 0 0 1 -37.04166,18.62211 z"
         style="fill:#ffffff;stroke-width:0.264583;paint-order:markers fill stroke"
         id="path84-8" />
    </g>
    <g
       id="g92">
      <path
         id="path72"
         style="fill:#084594;stroke-width:0.264583;paint-order:markers fill stroke"
         d="m 61.457746,152.92968 c -0.05883,-0.002 -0.119011,0.003 -0.179317,0.0134 -0.48245,0.0851 -0.802359,0.54176 -0.717269,1.02422 l 3.06803,17.39894 -13.622941,2.40192 a 7.8944819,14.694624 80 0 0 6.29884,5.07566 56.924075,56.924075 0 0 0 -8.681124,4.79299 56.924075,56.924075 0 0 0 -5.291666,4.02353 56.924075,56.924075 0 0 0 -5.291667,5.16816 v 0.003 l 5.291667,-5.2e-4 h 5.291666 74.083335 v -0.003 a 56.924075,56.924075 0 0 0 -42.333335,-18.8681 56.924075,56.924075 0 0 0 -2.64635,0.0615 7.9189041,14.740083 80 0 0 2.266011,-5.36454 l -13.622941,2.40244 -3.067513,-17.39894 c -0.07446,-0.42217 -0.433609,-0.71986 -0.845426,-0.7307 z m -13.833781,39.90144 -5.291666,5.2e-4 h -5.291667 v 0.003 A 56.924075,56.924075 0 0 1 0,211.45686 v 29.57855 h 37.040632 5.291667 164.041661 169.33333 132.2927 v -29.57855 a 56.924075,56.924075 0 0 1 -5.2927,0.24649 56.924075,56.924075 0 0 1 -42.33333,-18.86861 v -0.003 -0.003 a 56.924075,56.924075 0 0 0 -42.33334,-18.86862 56.924075,56.924075 0 0 0 -2.44739,0.0527 9.7335741,9.7335741 0 0 0 1.16065,-2.26446 l -30.35939,5.35316 0.20309,1.15445 a 3.7500566,3.7500566 0 0 0 3.40651,3.08767 56.924075,56.924075 0 0 0 -14.2968,11.48509 v 0.003 0.003 a 56.924075,56.924075 0 0 1 -42.33333,18.86861 56.924075,56.924075 0 0 1 -42.33333,-18.86861 v -0.003 -0.003 a 56.924075,56.924075 0 0 0 -42.33334,-18.86862 56.924075,56.924075 0 0 0 -2.43912,0.0527 8.8194287,8.8194287 0 0 0 1.38079,-2.26704 l -24.68118,4.35167 0.13539,0.76739 a 3.2777638,3.2777638 0 0 0 1.72755,2.34508 56.924075,56.924075 0 0 0 -18.45676,13.61881 v 0.003 0.003 a 56.924075,56.924075 0 0 1 -42.33333,18.86861 56.924075,56.924075 0 0 1 -42.33333,-18.86861 v -0.003 H 47.623965 Z m 14.99185,-39.27667 2.787426,15.99127 11.611695,-2.04742 z m -2.353345,0.41496 -2.607593,2.18746 3.198255,1.16427 z m 0.939478,5.46427 -6.829558,12.05714 8.708513,-1.53582 z m 177.084272,1.96215 -12.15946,2.14405 1.22525,6.94842 -4.34237,0.76584 -0.29042,-1.64589 a 1.3270635,1.3270635 0 0 0 -1.53376,-1.07746 c -0.001,-0.009 -0.002,-0.0174 -0.004,-0.0274 l -0.0207,-0.11886 c -0.079,-0.4482 -0.50368,-0.74563 -0.95188,-0.66663 l -0.98754,0.17415 c -0.44821,0.079 -0.74573,0.50369 -0.66663,0.95188 l 0.0212,0.11886 c 0.001,0.009 0.003,0.0184 0.005,0.0274 a 1.3270635,1.3270635 0 0 0 -1.0728,1.53685 l 0.21549,1.22267 a 4.4867381,4.4867381 0 0 0 5.12165,3.65197 l 5.2e-4,0.001 25.0827,-4.42299 a 8.8194287,8.8194287 0 0 0 0.26872,-4.16719 l -4.34237,0.76585 -1.39216,-1.54564 -13.67927,2.41225 -0.61288,-3.4742 11.50834,-2.02934 z m 1.80971,2.00918 -11.313,1.99471 0.42891,2.43189 12.83281,-2.26239 z m 165.06486,0.63872 a 3.4240212,3.2100198 80 0 0 -0.41755,0.0439 l -14.75258,2.60088 a 3.4240212,3.2100198 80 0 0 -2.56677,3.92948 l 0.44597,2.52904 -2.10737,0.37155 0.48318,2.73989 30.7852,-5.42809 a 9.7335741,9.7335741 0 0 0 0.14056,-4.04162 l -0.16795,-0.95188 -8.42998,1.48673 -0.0744,-0.42168 a 3.4240212,3.2100198 80 0 0 -3.3383,-2.85822 z m -2.00505,2.07688 a 1.7120104,1.7120104 0 0 1 1.76062,1.41335 1.7120104,1.7120104 0 0 1 -1.38855,1.98334 1.7120104,1.7120104 0 0 1 -1.98334,-1.38907 1.7120104,1.7120104 0 0 1 1.38855,-1.98334 1.7120104,1.7120104 0 0 1 0.22272,-0.0243 z m -5.26892,0.92914 a 1.7120104,1.7120104 0 0 1 1.76061,1.41283 1.7120104,1.7120104 0 0 1 -1.38854,1.98334 1.7120104,1.7120104 0 0 1 -1.98335,-1.38854 1.7120104,1.7120104 0 0 1 1.38907,-1.98334 1.7120104,1.7120104 0 0 1 0.22221,-0.0243 z m -5.26842,0.92914 a 1.7120104,1.7120104 0 0 1 1.76062,1.41283 1.7120104,1.7120104 0 0 1 -1.38906,1.98335 1.7120104,1.7120104 0 0 1 -1.98283,-1.38855 1.7120104,1.7120104 0 0 1 1.38855,-1.98334 1.7120104,1.7120104 0 0 1 0.22272,-0.0243 z M 47.623965,192.83525 v 5.2e-4 a 56.923998,56.923998 0 0 1 -5.291666,5.16661 56.923998,56.923998 0 0 0 5.291666,-5.16713 z" />
      <path
         d="m 169.33229,211.46285 a 56.923996,56.923996 0 0 1 -5.29166,0.2465 56.923996,56.923996 0 0 1 -42.33333,-18.86861 v -0.003 -0.003 a 56.923996,56.923996 0 0 0 -37.04167,-18.62211 56.924075,56.924075 0 0 1 5.29167,-0.2465 56.924075,56.924075 0 0 1 42.33333,18.86861 v 0.003 0.003 a 56.924075,56.924075 0 0 0 37.04166,18.62211 z"
         style="fill:#ffffff;stroke-width:0.264583;paint-order:markers fill stroke"
         id="path84-89" />
      <path
         d="m 338.66562,211.4396 a 56.923996,56.923996 0 0 1 -5.29166,0.2465 56.923996,56.923996 0 0 1 -42.33333,-18.86861 v -0.003 -0.003 a 56.923996,56.923996 0 0 0 -37.04167,-18.62211 56.924075,56.924075 0 0 1 5.29167,-0.2465 56.924075,56.924075 0 0 1 42.33333,18.86861 v 0.003 0.003 a 56.924075,56.924075 0 0 0 37.04166,18.62211 z"
         style="fill:#ffffff;stroke-width:0.264583;paint-order:markers fill stroke"
         id="path84-0" />
      <path
         d="m 507.99895,211.4336 a 56.923996,56.923996 0 0 1 -5.29166,0.2465 56.923996,56.923996 0 0 1 -42.33333,-18.86861 v -0.003 -0.003 a 56.923996,56.923996 0 0 0 -37.04167,-18.62211 56.924075,56.924075 0 0 1 5.29167,-0.2465 56.924075,56.924075 0 0 1 42.33333,18.86861 v 0.003 0.003 a 56.924075,56.924075 0 0 0 37.04166,18.62211 z"
         style="fill:#ffffff;stroke-width:0.264583;paint-order:markers fill stroke"
         id="path84-4" />
    </g>
  </g>
</svg>
